# xmcd
#
# Track frame offsets:
#	150
#	1625
#	19077
#	37120
#	54697
#	74260
#	94332
#	115995
#	135302
#	151562
#	167920
#	188342
#
# Disc length: 2528 seconds
#
# Revision: 6
# Processed by: cddbd v1.5.2PL0 Copyright (c) Steve Scherf et al.
# Submitted via: EZCDAudioConverter 7.1.5.1
#
DISCID=8d09de0c
DTITLE=孟庭苇 - 心言手语
DYEAR=1996
DGENRE=
TTITLE0=晨
TTITLE1=手语
TTITLE2=将错就错
TTITLE3=爱情海
TTITLE4=爱情的真相
TTITLE5=逃
TTITLE6=心电感应
TTITLE7=你是谁
TTITLE8=无处可藏
TTITLE9=伤了你的心的我伤心
TTITLE10=放在心里面
TTITLE11=夜
EXTD=
EXTT0=
EXTT1=
EXTT2=
EXTT3=
EXTT4=
EXTT5=
EXTT6=
EXTT7=
EXTT8=
EXTT9=
EXTT10=
EXTT11=
PLAYORDER=
